<svg xmlns="http://www.w3.org/2000/svg" viewBox="0 0 640 160" preserveAspectRatio="xMidYMid slice"><path d="M-40 200 L286.1 -638.8 L402.2 -583.9ZM-40 200 L509.2 -513 L605.1 -427.6ZM-40 200 L687.9 -329.4 L755.8 -220.4ZM-40 200 L807.5 -102.9 L842 20.8ZM-40 200 L858.5 148.2 L856.7 276.6ZM-40 200 L836.7 403.4 L798.8 526.1ZM-40 200 L743.9 642.2 L673 749.2ZM-40 200 L587.6 845.1 L489.4 927.9ZM-40 200 L380.4 995.8 L262.9 1047.5ZM-40 200 L139.2 1082 L11.8 1098.5ZM-40 200 L-116.6 1096.7 L-243.4 1076.7ZM-40 200 L-366.1 1038.8 L-482.2 983.9ZM-40 200 L-589.2 913 L-685.1 827.6ZM-40 200 L-767.9 729.4 L-835.8 620.4ZM-40 200 L-887.5 502.9 L-922 379.2ZM-40 200 L-938.5 251.8 L-936.7 123.4ZM-40 200 L-916.7 -3.4 L-878.8 -126.1ZM-40 200 L-823.9 -242.2 L-753 -349.2ZM-40 200 L-667.6 -445.1 L-569.4 -527.9ZM-40 200 L-460.4 -595.8 L-342.9 -647.5ZM-40 200 L-219.2 -682 L-91.8 -698.5ZM-40 200 L36.6 -696.7 L163.4 -676.7Z" fill="#e60012" opacity="0.22"/><path d="M-1 0a1 1 0 1 0 2 0a1 1 0 1 0 -2 0M12 0a1 1 0 1 0 2 0a1 1 0 1 0 -2 0M25 0a1 1 0 1 0 2 0a1 1 0 1 0 -2 0M38 0a1 1 0 1 0 2 0a1 1 0 1 0 -2 0M50 0a1.5 1.5 0 1 0 3 0a1.5 1.5 0 1 0 -3 0M64 0a1.5 1.5 0 1 0 3 0a1.5 1.5 0 1 0 -3 0M76 0a1.5 1.5 0 1 0 3 0a1.5 1.5 0 1 0 -3 0M90 0a1.5 1.5 0 1 0 3 0a1.5 1.5 0 1 0 -3 0M102 0a1.5 1.5 0 1 0 3 0a1.5 1.5 0 1 0 -3 0M116 0a1.5 1.5 0 1 0 3 0a1.5 1.5 0 1 0 -3 0M128 0a1.5 1.5 0 1 0 3 0a1.5 1.5 0 1 0 -3 0M141 0a2 2 0 1 0 4 0a2 2 0 1 0 -4 0M154 0a2 2 0 1 0 4 0a2 2 0 1 0 -4 0M167 0a2 2 0 1 0 4 0a2 2 0 1 0 -4 0M180 0a2 2 0 1 0 4 0a2 2 0 1 0 -4 0M193 0a2 2 0 1 0 4 0a2 2 0 1 0 -4 0M206 0a2 2 0 1 0 4 0a2 2 0 1 0 -4 0M219 0a2 2 0 1 0 4 0a2 2 0 1 0 -4 0M232 0a2 2 0 1 0 4 0a2 2 0 1 0 -4 0M244 0a2.5 2.5 0 1 0 5 0a2.5 2.5 0 1 0 -5 0M258 0a2.5 2.5 0 1 0 5 0a2.5 2.5 0 1 0 -5 0M270 0a2.5 2.5 0 1 0 5 0a2.5 2.5 0 1 0 -5 0M284 0a2.5 2.5 0 1 0 5 0a2.5 2.5 0 1 0 -5 0M296 0a2.5 2.5 0 1 0 5 0a2.5 2.5 0 1 0 -5 0M310 0a2.5 2.5 0 1 0 5 0a2.5 2.5 0 1 0 -5 0M322 0a2.5 2.5 0 1 0 5 0a2.5 2.5 0 1 0 -5 0M335 0a3 3 0 1 0 6 0a3 3 0 1 0 -6 0M348 0a3 3 0 1 0 6 0a3 3 0 1 0 -6 0M361 0a3 3 0 1 0 6 0a3 3 0 1 0 -6 0M374 0a3 3 0 1 0 6 0a3 3 0 1 0 -6 0M387 0a3 3 0 1 0 6 0a3 3 0 1 0 -6 0M400 0a3 3 0 1 0 6 0a3 3 0 1 0 -6 0M413 0a3 3 0 1 0 6 0a3 3 0 1 0 -6 0M426 0a3.5 3.5 0 1 0 7 0a3.5 3.5 0 1 0 -7 0M438 0a3.5 3.5 0 1 0 7 0a3.5 3.5 0 1 0 -7 0M452 0a3.5 3.5 0 1 0 7 0a3.5 3.5 0 1 0 -7 0M464 0a3.5 3.5 0 1 0 7 0a3.5 3.5 0 1 0 -7 0M478 0a3.5 3.5 0 1 0 7 0a3.5 3.5 0 1 0 -7 0M490 0a3.5 3.5 0 1 0 7 0a3.5 3.5 0 1 0 -7 0M504 0a3.5 3.5 0 1 0 7 0a3.5 3.5 0 1 0 -7 0M516 0a3.5 3.5 0 1 0 7 0a3.5 3.5 0 1 0 -7 0M529 0a4 4 0 1 0 8 0a4 4 0 1 0 -8 0M542 0a4 4 0 1 0 8 0a4 4 0 1 0 -8 0M555 0a4 4 0 1 0 8 0a4 4 0 1 0 -8 0M568 0a4 4 0 1 0 8 0a4 4 0 1 0 -8 0M581 0a4 4 0 1 0 8 0a4 4 0 1 0 -8 0M594 0a4 4 0 1 0 8 0a4 4 0 1 0 -8 0M607 0a4 4 0 1 0 8 0a4 4 0 1 0 -8 0M620 0a4.5 4.5 0 1 0 9 0a4.5 4.5 0 1 0 -9 0M632 0a4.5 4.5 0 1 0 9 0a4.5 4.5 0 1 0 -9 0M646 0a4.5 4.5 0 1 0 9 0a4.5 4.5 0 1 0 -9 0M6 13a1 1 0 1 0 2 0a1 1 0 1 0 -2 0M18 13a1 1 0 1 0 2 0a1 1 0 1 0 -2 0M32 13a1 1 0 1 0 2 0a1 1 0 1 0 -2 0M44 13a1 1 0 1 0 2 0a1 1 0 1 0 -2 0M58 13a1 1 0 1 0 2 0a1 1 0 1 0 -2 0M70 13a1 1 0 1 0 2 0a1 1 0 1 0 -2 0M84 13a1 1 0 1 0 2 0a1 1 0 1 0 -2 0M96 13a1 1 0 1 0 2 0a1 1 0 1 0 -2 0M109 13a1.5 1.5 0 1 0 3 0a1.5 1.5 0 1 0 -3 0M122 13a1.5 1.5 0 1 0 3 0a1.5 1.5 0 1 0 -3 0M135 13a1.5 1.5 0 1 0 3 0a1.5 1.5 0 1 0 -3 0M148 13a1.5 1.5 0 1 0 3 0a1.5 1.5 0 1 0 -3 0M161 13a1.5 1.5 0 1 0 3 0a1.5 1.5 0 1 0 -3 0M174 13a1.5 1.5 0 1 0 3 0a1.5 1.5 0 1 0 -3 0M187 13a1.5 1.5 0 1 0 3 0a1.5 1.5 0 1 0 -3 0M200 13a2 2 0 1 0 4 0a2 2 0 1 0 -4 0M212 13a2 2 0 1 0 4 0a2 2 0 1 0 -4 0M226 13a2 2 0 1 0 4 0a2 2 0 1 0 -4 0M238 13a2 2 0 1 0 4 0a2 2 0 1 0 -4 0M252 13a2 2 0 1 0 4 0a2 2 0 1 0 -4 0M264 13a2 2 0 1 0 4 0a2 2 0 1 0 -4 0M278 13a2 2 0 1 0 4 0a2 2 0 1 0 -4 0M290 13a2.5 2.5 0 1 0 5 0a2.5 2.5 0 1 0 -5 0M303 13a2.5 2.5 0 1 0 5 0a2.5 2.5 0 1 0 -5 0M316 13a2.5 2.5 0 1 0 5 0a2.5 2.5 0 1 0 -5 0M329 13a2.5 2.5 0 1 0 5 0a2.5 2.5 0 1 0 -5 0M342 13a2.5 2.5 0 1 0 5 0a2.5 2.5 0 1 0 -5 0M355 13a2.5 2.5 0 1 0 5 0a2.5 2.5 0 1 0 -5 0M368 13a2.5 2.5 0 1 0 5 0a2.5 2.5 0 1 0 -5 0M381 13a2.5 2.5 0 1 0 5 0a2.5 2.5 0 1 0 -5 0M394 13a3 3 0 1 0 6 0a3 3 0 1 0 -6 0M406 13a3 3 0 1 0 6 0a3 3 0 1 0 -6 0M420 13a3 3 0 1 0 6 0a3 3 0 1 0 -6 0M432 13a3 3 0 1 0 6 0a3 3 0 1 0 -6 0M446 13a3 3 0 1 0 6 0a3 3 0 1 0 -6 0M458 13a3 3 0 1 0 6 0a3 3 0 1 0 -6 0M472 13a3 3 0 1 0 6 0a3 3 0 1 0 -6 0M484 13a3.5 3.5 0 1 0 7 0a3.5 3.5 0 1 0 -7 0M497 13a3.5 3.5 0 1 0 7 0a3.5 3.5 0 1 0 -7 0M510 13a3.5 3.5 0 1 0 7 0a3.5 3.5 0 1 0 -7 0M523 13a3.5 3.5 0 1 0 7 0a3.5 3.5 0 1 0 -7 0M536 13a3.5 3.5 0 1 0 7 0a3.5 3.5 0 1 0 -7 0M549 13a3.5 3.5 0 1 0 7 0a3.5 3.5 0 1 0 -7 0M562 13a3.5 3.5 0 1 0 7 0a3.5 3.5 0 1 0 -7 0M574 13a4 4 0 1 0 8 0a4 4 0 1 0 -8 0M588 13a4 4 0 1 0 8 0a4 4 0 1 0 -8 0M600 13a4 4 0 1 0 8 0a4 4 0 1 0 -8 0M614 13a4 4 0 1 0 8 0a4 4 0 1 0 -8 0M626 13a4 4 0 1 0 8 0a4 4 0 1 0 -8 0M640 13a4 4 0 1 0 8 0a4 4 0 1 0 -8 0M652 13a4 4 0 1 0 8 0a4 4 0 1 0 -8 0M0 26a0.5 0.5 0 1 0 1 0a0.5 0.5 0 1 0 -1 0M12 26a0.5 0.5 0 1 0 1 0a0.5 0.5 0 1 0 -1 0M26 26a0.5 0.5 0 1 0 1 0a0.5 0.5 0 1 0 -1 0M38 26a0.5 0.5 0 1 0 1 0a0.5 0.5 0 1 0 -1 0M52 26a0.5 0.5 0 1 0 1 0a0.5 0.5 0 1 0 -1 0M64 26a1 1 0 1 0 2 0a1 1 0 1 0 -2 0M77 26a1 1 0 1 0 2 0a1 1 0 1 0 -2 0M90 26a1 1 0 1 0 2 0a1 1 0 1 0 -2 0M103 26a1 1 0 1 0 2 0a1 1 0 1 0 -2 0M116 26a1 1 0 1 0 2 0a1 1 0 1 0 -2 0M129 26a1 1 0 1 0 2 0a1 1 0 1 0 -2 0M142 26a1 1 0 1 0 2 0a1 1 0 1 0 -2 0M154 26a1.5 1.5 0 1 0 3 0a1.5 1.5 0 1 0 -3 0M168 26a1.5 1.5 0 1 0 3 0a1.5 1.5 0 1 0 -3 0M180 26a1.5 1.5 0 1 0 3 0a1.5 1.5 0 1 0 -3 0M194 26a1.5 1.5 0 1 0 3 0a1.5 1.5 0 1 0 -3 0M206 26a1.5 1.5 0 1 0 3 0a1.5 1.5 0 1 0 -3 0M220 26a1.5 1.5 0 1 0 3 0a1.5 1.5 0 1 0 -3 0M232 26a1.5 1.5 0 1 0 3 0a1.5 1.5 0 1 0 -3 0M245 26a2 2 0 1 0 4 0a2 2 0 1 0 -4 0M258 26a2 2 0 1 0 4 0a2 2 0 1 0 -4 0M271 26a2 2 0 1 0 4 0a2 2 0 1 0 -4 0M284 26a2 2 0 1 0 4 0a2 2 0 1 0 -4 0M297 26a2 2 0 1 0 4 0a2 2 0 1 0 -4 0M310 26a2 2 0 1 0 4 0a2 2 0 1 0 -4 0M323 26a2 2 0 1 0 4 0a2 2 0 1 0 -4 0M336 26a2 2 0 1 0 4 0a2 2 0 1 0 -4 0M348 26a2.5 2.5 0 1 0 5 0a2.5 2.5 0 1 0 -5 0M362 26a2.5 2.5 0 1 0 5 0a2.5 2.5 0 1 0 -5 0M374 26a2.5 2.5 0 1 0 5 0a2.5 2.5 0 1 0 -5 0M388 26a2.5 2.5 0 1 0 5 0a2.5 2.5 0 1 0 -5 0M400 26a2.5 2.5 0 1 0 5 0a2.5 2.5 0 1 0 -5 0M414 26a2.5 2.5 0 1 0 5 0a2.5 2.5 0 1 0 -5 0M426 26a2.5 2.5 0 1 0 5 0a2.5 2.5 0 1 0 -5 0M439 26a3 3 0 1 0 6 0a3 3 0 1 0 -6 0M452 26a3 3 0 1 0 6 0a3 3 0 1 0 -6 0M465 26a3 3 0 1 0 6 0a3 3 0 1 0 -6 0M478 26a3 3 0 1 0 6 0a3 3 0 1 0 -6 0M491 26a3 3 0 1 0 6 0a3 3 0 1 0 -6 0M504 26a3 3 0 1 0 6 0a3 3 0 1 0 -6 0M517 26a3 3 0 1 0 6 0a3 3 0 1 0 -6 0M530 26a3.5 3.5 0 1 0 7 0a3.5 3.5 0 1 0 -7 0M542 26a3.5 3.5 0 1 0 7 0a3.5 3.5 0 1 0 -7 0M556 26a3.5 3.5 0 1 0 7 0a3.5 3.5 0 1 0 -7 0M568 26a3.5 3.5 0 1 0 7 0a3.5 3.5 0 1 0 -7 0M582 26a3.5 3.5 0 1 0 7 0a3.5 3.5 0 1 0 -7 0M594 26a3.5 3.5 0 1 0 7 0a3.5 3.5 0 1 0 -7 0M608 26a3.5 3.5 0 1 0 7 0a3.5 3.5 0 1 0 -7 0M620 26a3.5 3.5 0 1 0 7 0a3.5 3.5 0 1 0 -7 0M633 26a4 4 0 1 0 8 0a4 4 0 1 0 -8 0M646 26a4 4 0 1 0 8 0a4 4 0 1 0 -8 0M19 39a0.5 0.5 0 1 0 1 0a0.5 0.5 0 1 0 -1 0M32 39a0.5 0.5 0 1 0 1 0a0.5 0.5 0 1 0 -1 0M45 39a0.5 0.5 0 1 0 1 0a0.5 0.5 0 1 0 -1 0M58 39a0.5 0.5 0 1 0 1 0a0.5 0.5 0 1 0 -1 0M71 39a0.5 0.5 0 1 0 1 0a0.5 0.5 0 1 0 -1 0M84 39a0.5 0.5 0 1 0 1 0a0.5 0.5 0 1 0 -1 0M97 39a0.5 0.5 0 1 0 1 0a0.5 0.5 0 1 0 -1 0M110 39a1 1 0 1 0 2 0a1 1 0 1 0 -2 0M122 39a1 1 0 1 0 2 0a1 1 0 1 0 -2 0M136 39a1 1 0 1 0 2 0a1 1 0 1 0 -2 0M148 39a1 1 0 1 0 2 0a1 1 0 1 0 -2 0M162 39a1 1 0 1 0 2 0a1 1 0 1 0 -2 0M174 39a1 1 0 1 0 2 0a1 1 0 1 0 -2 0M188 39a1 1 0 1 0 2 0a1 1 0 1 0 -2 0M200 39a1 1 0 1 0 2 0a1 1 0 1 0 -2 0M213 39a1.5 1.5 0 1 0 3 0a1.5 1.5 0 1 0 -3 0M226 39a1.5 1.5 0 1 0 3 0a1.5 1.5 0 1 0 -3 0M239 39a1.5 1.5 0 1 0 3 0a1.5 1.5 0 1 0 -3 0M252 39a1.5 1.5 0 1 0 3 0a1.5 1.5 0 1 0 -3 0M265 39a1.5 1.5 0 1 0 3 0a1.5 1.5 0 1 0 -3 0M278 39a1.5 1.5 0 1 0 3 0a1.5 1.5 0 1 0 -3 0M291 39a1.5 1.5 0 1 0 3 0a1.5 1.5 0 1 0 -3 0M304 39a2 2 0 1 0 4 0a2 2 0 1 0 -4 0M316 39a2 2 0 1 0 4 0a2 2 0 1 0 -4 0M330 39a2 2 0 1 0 4 0a2 2 0 1 0 -4 0M342 39a2 2 0 1 0 4 0a2 2 0 1 0 -4 0M356 39a2 2 0 1 0 4 0a2 2 0 1 0 -4 0M368 39a2 2 0 1 0 4 0a2 2 0 1 0 -4 0M382 39a2 2 0 1 0 4 0a2 2 0 1 0 -4 0M394 39a2.5 2.5 0 1 0 5 0a2.5 2.5 0 1 0 -5 0M407 39a2.5 2.5 0 1 0 5 0a2.5 2.5 0 1 0 -5 0M420 39a2.5 2.5 0 1 0 5 0a2.5 2.5 0 1 0 -5 0M433 39a2.5 2.5 0 1 0 5 0a2.5 2.5 0 1 0 -5 0M446 39a2.5 2.5 0 1 0 5 0a2.5 2.5 0 1 0 -5 0M459 39a2.5 2.5 0 1 0 5 0a2.5 2.5 0 1 0 -5 0M472 39a2.5 2.5 0 1 0 5 0a2.5 2.5 0 1 0 -5 0M485 39a2.5 2.5 0 1 0 5 0a2.5 2.5 0 1 0 -5 0M498 39a3 3 0 1 0 6 0a3 3 0 1 0 -6 0M510 39a3 3 0 1 0 6 0a3 3 0 1 0 -6 0M524 39a3 3 0 1 0 6 0a3 3 0 1 0 -6 0M536 39a3 3 0 1 0 6 0a3 3 0 1 0 -6 0M550 39a3 3 0 1 0 6 0a3 3 0 1 0 -6 0M562 39a3 3 0 1 0 6 0a3 3 0 1 0 -6 0M576 39a3 3 0 1 0 6 0a3 3 0 1 0 -6 0M588 39a3.5 3.5 0 1 0 7 0a3.5 3.5 0 1 0 -7 0M601 39a3.5 3.5 0 1 0 7 0a3.5 3.5 0 1 0 -7 0M614 39a3.5 3.5 0 1 0 7 0a3.5 3.5 0 1 0 -7 0M627 39a3.5 3.5 0 1 0 7 0a3.5 3.5 0 1 0 -7 0M640 39a3.5 3.5 0 1 0 7 0a3.5 3.5 0 1 0 -7 0M653 39a3.5 3.5 0 1 0 7 0a3.5 3.5 0 1 0 -7 0M64 52a0.5 0.5 0 1 0 1 0a0.5 0.5 0 1 0 -1 0M78 52a0.5 0.5 0 1 0 1 0a0.5 0.5 0 1 0 -1 0M90 52a0.5 0.5 0 1 0 1 0a0.5 0.5 0 1 0 -1 0M104 52a0.5 0.5 0 1 0 1 0a0.5 0.5 0 1 0 -1 0M116 52a0.5 0.5 0 1 0 1 0a0.5 0.5 0 1 0 -1 0M130 52a0.5 0.5 0 1 0 1 0a0.5 0.5 0 1 0 -1 0M142 52a0.5 0.5 0 1 0 1 0a0.5 0.5 0 1 0 -1 0M156 52a0.5 0.5 0 1 0 1 0a0.5 0.5 0 1 0 -1 0M168 52a1 1 0 1 0 2 0a1 1 0 1 0 -2 0M181 52a1 1 0 1 0 2 0a1 1 0 1 0 -2 0M194 52a1 1 0 1 0 2 0a1 1 0 1 0 -2 0M207 52a1 1 0 1 0 2 0a1 1 0 1 0 -2 0M220 52a1 1 0 1 0 2 0a1 1 0 1 0 -2 0M233 52a1 1 0 1 0 2 0a1 1 0 1 0 -2 0M246 52a1 1 0 1 0 2 0a1 1 0 1 0 -2 0M258 52a1.5 1.5 0 1 0 3 0a1.5 1.5 0 1 0 -3 0M272 52a1.5 1.5 0 1 0 3 0a1.5 1.5 0 1 0 -3 0M284 52a1.5 1.5 0 1 0 3 0a1.5 1.5 0 1 0 -3 0M298 52a1.5 1.5 0 1 0 3 0a1.5 1.5 0 1 0 -3 0M310 52a1.5 1.5 0 1 0 3 0a1.5 1.5 0 1 0 -3 0M324 52a1.5 1.5 0 1 0 3 0a1.5 1.5 0 1 0 -3 0M336 52a1.5 1.5 0 1 0 3 0a1.5 1.5 0 1 0 -3 0M349 52a2 2 0 1 0 4 0a2 2 0 1 0 -4 0M362 52a2 2 0 1 0 4 0a2 2 0 1 0 -4 0M375 52a2 2 0 1 0 4 0a2 2 0 1 0 -4 0M388 52a2 2 0 1 0 4 0a2 2 0 1 0 -4 0M401 52a2 2 0 1 0 4 0a2 2 0 1 0 -4 0M414 52a2 2 0 1 0 4 0a2 2 0 1 0 -4 0M427 52a2 2 0 1 0 4 0a2 2 0 1 0 -4 0M440 52a2 2 0 1 0 4 0a2 2 0 1 0 -4 0M452 52a2.5 2.5 0 1 0 5 0a2.5 2.5 0 1 0 -5 0M466 52a2.5 2.5 0 1 0 5 0a2.5 2.5 0 1 0 -5 0M478 52a2.5 2.5 0 1 0 5 0a2.5 2.5 0 1 0 -5 0M492 52a2.5 2.5 0 1 0 5 0a2.5 2.5 0 1 0 -5 0M504 52a2.5 2.5 0 1 0 5 0a2.5 2.5 0 1 0 -5 0M518 52a2.5 2.5 0 1 0 5 0a2.5 2.5 0 1 0 -5 0M530 52a2.5 2.5 0 1 0 5 0a2.5 2.5 0 1 0 -5 0M543 52a3 3 0 1 0 6 0a3 3 0 1 0 -6 0M556 52a3 3 0 1 0 6 0a3 3 0 1 0 -6 0M569 52a3 3 0 1 0 6 0a3 3 0 1 0 -6 0M582 52a3 3 0 1 0 6 0a3 3 0 1 0 -6 0M595 52a3 3 0 1 0 6 0a3 3 0 1 0 -6 0M608 52a3 3 0 1 0 6 0a3 3 0 1 0 -6 0M621 52a3 3 0 1 0 6 0a3 3 0 1 0 -6 0M634 52a3.5 3.5 0 1 0 7 0a3.5 3.5 0 1 0 -7 0M646 52a3.5 3.5 0 1 0 7 0a3.5 3.5 0 1 0 -7 0M123 65a0.5 0.5 0 1 0 1 0a0.5 0.5 0 1 0 -1 0M136 65a0.5 0.5 0 1 0 1 0a0.5 0.5 0 1 0 -1 0M149 65a0.5 0.5 0 1 0 1 0a0.5 0.5 0 1 0 -1 0M162 65a0.5 0.5 0 1 0 1 0a0.5 0.5 0 1 0 -1 0M175 65a0.5 0.5 0 1 0 1 0a0.5 0.5 0 1 0 -1 0M188 65a0.5 0.5 0 1 0 1 0a0.5 0.5 0 1 0 -1 0M201 65a0.5 0.5 0 1 0 1 0a0.5 0.5 0 1 0 -1 0M214 65a1 1 0 1 0 2 0a1 1 0 1 0 -2 0M226 65a1 1 0 1 0 2 0a1 1 0 1 0 -2 0M240 65a1 1 0 1 0 2 0a1 1 0 1 0 -2 0M252 65a1 1 0 1 0 2 0a1 1 0 1 0 -2 0M266 65a1 1 0 1 0 2 0a1 1 0 1 0 -2 0M278 65a1 1 0 1 0 2 0a1 1 0 1 0 -2 0M292 65a1 1 0 1 0 2 0a1 1 0 1 0 -2 0M304 65a1 1 0 1 0 2 0a1 1 0 1 0 -2 0M317 65a1.5 1.5 0 1 0 3 0a1.5 1.5 0 1 0 -3 0M330 65a1.5 1.5 0 1 0 3 0a1.5 1.5 0 1 0 -3 0M343 65a1.5 1.5 0 1 0 3 0a1.5 1.5 0 1 0 -3 0M356 65a1.5 1.5 0 1 0 3 0a1.5 1.5 0 1 0 -3 0M369 65a1.5 1.5 0 1 0 3 0a1.5 1.5 0 1 0 -3 0M382 65a1.5 1.5 0 1 0 3 0a1.5 1.5 0 1 0 -3 0M395 65a1.5 1.5 0 1 0 3 0a1.5 1.5 0 1 0 -3 0M408 65a2 2 0 1 0 4 0a2 2 0 1 0 -4 0M420 65a2 2 0 1 0 4 0a2 2 0 1 0 -4 0M434 65a2 2 0 1 0 4 0a2 2 0 1 0 -4 0M446 65a2 2 0 1 0 4 0a2 2 0 1 0 -4 0M460 65a2 2 0 1 0 4 0a2 2 0 1 0 -4 0M472 65a2 2 0 1 0 4 0a2 2 0 1 0 -4 0M486 65a2 2 0 1 0 4 0a2 2 0 1 0 -4 0M498 65a2.5 2.5 0 1 0 5 0a2.5 2.5 0 1 0 -5 0M511 65a2.5 2.5 0 1 0 5 0a2.5 2.5 0 1 0 -5 0M524 65a2.5 2.5 0 1 0 5 0a2.5 2.5 0 1 0 -5 0M537 65a2.5 2.5 0 1 0 5 0a2.5 2.5 0 1 0 -5 0M550 65a2.5 2.5 0 1 0 5 0a2.5 2.5 0 1 0 -5 0M563 65a2.5 2.5 0 1 0 5 0a2.5 2.5 0 1 0 -5 0M576 65a2.5 2.5 0 1 0 5 0a2.5 2.5 0 1 0 -5 0M589 65a2.5 2.5 0 1 0 5 0a2.5 2.5 0 1 0 -5 0M602 65a3 3 0 1 0 6 0a3 3 0 1 0 -6 0M614 65a3 3 0 1 0 6 0a3 3 0 1 0 -6 0M628 65a3 3 0 1 0 6 0a3 3 0 1 0 -6 0M640 65a3 3 0 1 0 6 0a3 3 0 1 0 -6 0M654 65a3 3 0 1 0 6 0a3 3 0 1 0 -6 0M168 78a0.5 0.5 0 1 0 1 0a0.5 0.5 0 1 0 -1 0M182 78a0.5 0.5 0 1 0 1 0a0.5 0.5 0 1 0 -1 0M194 78a0.5 0.5 0 1 0 1 0a0.5 0.5 0 1 0 -1 0M208 78a0.5 0.5 0 1 0 1 0a0.5 0.5 0 1 0 -1 0M220 78a0.5 0.5 0 1 0 1 0a0.5 0.5 0 1 0 -1 0M234 78a0.5 0.5 0 1 0 1 0a0.5 0.5 0 1 0 -1 0M246 78a0.5 0.5 0 1 0 1 0a0.5 0.5 0 1 0 -1 0M260 78a0.5 0.5 0 1 0 1 0a0.5 0.5 0 1 0 -1 0M272 78a1 1 0 1 0 2 0a1 1 0 1 0 -2 0M285 78a1 1 0 1 0 2 0a1 1 0 1 0 -2 0M298 78a1 1 0 1 0 2 0a1 1 0 1 0 -2 0M311 78a1 1 0 1 0 2 0a1 1 0 1 0 -2 0M324 78a1 1 0 1 0 2 0a1 1 0 1 0 -2 0M337 78a1 1 0 1 0 2 0a1 1 0 1 0 -2 0M350 78a1 1 0 1 0 2 0a1 1 0 1 0 -2 0M362 78a1.5 1.5 0 1 0 3 0a1.5 1.5 0 1 0 -3 0M376 78a1.5 1.5 0 1 0 3 0a1.5 1.5 0 1 0 -3 0M388 78a1.5 1.5 0 1 0 3 0a1.5 1.5 0 1 0 -3 0M402 78a1.5 1.5 0 1 0 3 0a1.5 1.5 0 1 0 -3 0M414 78a1.5 1.5 0 1 0 3 0a1.5 1.5 0 1 0 -3 0M428 78a1.5 1.5 0 1 0 3 0a1.5 1.5 0 1 0 -3 0M440 78a1.5 1.5 0 1 0 3 0a1.5 1.5 0 1 0 -3 0M453 78a2 2 0 1 0 4 0a2 2 0 1 0 -4 0M466 78a2 2 0 1 0 4 0a2 2 0 1 0 -4 0M479 78a2 2 0 1 0 4 0a2 2 0 1 0 -4 0M492 78a2 2 0 1 0 4 0a2 2 0 1 0 -4 0M505 78a2 2 0 1 0 4 0a2 2 0 1 0 -4 0M518 78a2 2 0 1 0 4 0a2 2 0 1 0 -4 0M531 78a2 2 0 1 0 4 0a2 2 0 1 0 -4 0M544 78a2 2 0 1 0 4 0a2 2 0 1 0 -4 0M556 78a2.5 2.5 0 1 0 5 0a2.5 2.5 0 1 0 -5 0M570 78a2.5 2.5 0 1 0 5 0a2.5 2.5 0 1 0 -5 0M582 78a2.5 2.5 0 1 0 5 0a2.5 2.5 0 1 0 -5 0M596 78a2.5 2.5 0 1 0 5 0a2.5 2.5 0 1 0 -5 0M608 78a2.5 2.5 0 1 0 5 0a2.5 2.5 0 1 0 -5 0M622 78a2.5 2.5 0 1 0 5 0a2.5 2.5 0 1 0 -5 0M634 78a2.5 2.5 0 1 0 5 0a2.5 2.5 0 1 0 -5 0M647 78a3 3 0 1 0 6 0a3 3 0 1 0 -6 0M227 91a0.5 0.5 0 1 0 1 0a0.5 0.5 0 1 0 -1 0M240 91a0.5 0.5 0 1 0 1 0a0.5 0.5 0 1 0 -1 0M253 91a0.5 0.5 0 1 0 1 0a0.5 0.5 0 1 0 -1 0M266 91a0.5 0.5 0 1 0 1 0a0.5 0.5 0 1 0 -1 0M279 91a0.5 0.5 0 1 0 1 0a0.5 0.5 0 1 0 -1 0M292 91a0.5 0.5 0 1 0 1 0a0.5 0.5 0 1 0 -1 0M305 91a0.5 0.5 0 1 0 1 0a0.5 0.5 0 1 0 -1 0M318 91a1 1 0 1 0 2 0a1 1 0 1 0 -2 0M330 91a1 1 0 1 0 2 0a1 1 0 1 0 -2 0M344 91a1 1 0 1 0 2 0a1 1 0 1 0 -2 0M356 91a1 1 0 1 0 2 0a1 1 0 1 0 -2 0M370 91a1 1 0 1 0 2 0a1 1 0 1 0 -2 0M382 91a1 1 0 1 0 2 0a1 1 0 1 0 -2 0M396 91a1 1 0 1 0 2 0a1 1 0 1 0 -2 0M408 91a1 1 0 1 0 2 0a1 1 0 1 0 -2 0M421 91a1.5 1.5 0 1 0 3 0a1.5 1.5 0 1 0 -3 0M434 91a1.5 1.5 0 1 0 3 0a1.5 1.5 0 1 0 -3 0M447 91a1.5 1.5 0 1 0 3 0a1.5 1.5 0 1 0 -3 0M460 91a1.5 1.5 0 1 0 3 0a1.5 1.5 0 1 0 -3 0M473 91a1.5 1.5 0 1 0 3 0a1.5 1.5 0 1 0 -3 0M486 91a1.5 1.5 0 1 0 3 0a1.5 1.5 0 1 0 -3 0M499 91a1.5 1.5 0 1 0 3 0a1.5 1.5 0 1 0 -3 0M512 91a2 2 0 1 0 4 0a2 2 0 1 0 -4 0M524 91a2 2 0 1 0 4 0a2 2 0 1 0 -4 0M538 91a2 2 0 1 0 4 0a2 2 0 1 0 -4 0M550 91a2 2 0 1 0 4 0a2 2 0 1 0 -4 0M564 91a2 2 0 1 0 4 0a2 2 0 1 0 -4 0M576 91a2 2 0 1 0 4 0a2 2 0 1 0 -4 0M590 91a2 2 0 1 0 4 0a2 2 0 1 0 -4 0M602 91a2.5 2.5 0 1 0 5 0a2.5 2.5 0 1 0 -5 0M615 91a2.5 2.5 0 1 0 5 0a2.5 2.5 0 1 0 -5 0M628 91a2.5 2.5 0 1 0 5 0a2.5 2.5 0 1 0 -5 0M641 91a2.5 2.5 0 1 0 5 0a2.5 2.5 0 1 0 -5 0M654 91a2.5 2.5 0 1 0 5 0a2.5 2.5 0 1 0 -5 0M272 104a0.5 0.5 0 1 0 1 0a0.5 0.5 0 1 0 -1 0M286 104a0.5 0.5 0 1 0 1 0a0.5 0.5 0 1 0 -1 0M298 104a0.5 0.5 0 1 0 1 0a0.5 0.5 0 1 0 -1 0M312 104a0.5 0.5 0 1 0 1 0a0.5 0.5 0 1 0 -1 0M324 104a0.5 0.5 0 1 0 1 0a0.5 0.5 0 1 0 -1 0M338 104a0.5 0.5 0 1 0 1 0a0.5 0.5 0 1 0 -1 0M350 104a0.5 0.5 0 1 0 1 0a0.5 0.5 0 1 0 -1 0M364 104a0.5 0.5 0 1 0 1 0a0.5 0.5 0 1 0 -1 0M376 104a1 1 0 1 0 2 0a1 1 0 1 0 -2 0M389 104a1 1 0 1 0 2 0a1 1 0 1 0 -2 0M402 104a1 1 0 1 0 2 0a1 1 0 1 0 -2 0M415 104a1 1 0 1 0 2 0a1 1 0 1 0 -2 0M428 104a1 1 0 1 0 2 0a1 1 0 1 0 -2 0M441 104a1 1 0 1 0 2 0a1 1 0 1 0 -2 0M454 104a1 1 0 1 0 2 0a1 1 0 1 0 -2 0M466 104a1.5 1.5 0 1 0 3 0a1.5 1.5 0 1 0 -3 0M480 104a1.5 1.5 0 1 0 3 0a1.5 1.5 0 1 0 -3 0M492 104a1.5 1.5 0 1 0 3 0a1.5 1.5 0 1 0 -3 0M506 104a1.5 1.5 0 1 0 3 0a1.5 1.5 0 1 0 -3 0M518 104a1.5 1.5 0 1 0 3 0a1.5 1.5 0 1 0 -3 0M532 104a1.5 1.5 0 1 0 3 0a1.5 1.5 0 1 0 -3 0M544 104a1.5 1.5 0 1 0 3 0a1.5 1.5 0 1 0 -3 0M557 104a2 2 0 1 0 4 0a2 2 0 1 0 -4 0M570 104a2 2 0 1 0 4 0a2 2 0 1 0 -4 0M583 104a2 2 0 1 0 4 0a2 2 0 1 0 -4 0M596 104a2 2 0 1 0 4 0a2 2 0 1 0 -4 0M609 104a2 2 0 1 0 4 0a2 2 0 1 0 -4 0M622 104a2 2 0 1 0 4 0a2 2 0 1 0 -4 0M635 104a2 2 0 1 0 4 0a2 2 0 1 0 -4 0M648 104a2 2 0 1 0 4 0a2 2 0 1 0 -4 0M331 117a0.5 0.5 0 1 0 1 0a0.5 0.5 0 1 0 -1 0M344 117a0.5 0.5 0 1 0 1 0a0.5 0.5 0 1 0 -1 0M357 117a0.5 0.5 0 1 0 1 0a0.5 0.5 0 1 0 -1 0M370 117a0.5 0.5 0 1 0 1 0a0.5 0.5 0 1 0 -1 0M383 117a0.5 0.5 0 1 0 1 0a0.5 0.5 0 1 0 -1 0M396 117a0.5 0.5 0 1 0 1 0a0.5 0.5 0 1 0 -1 0M409 117a0.5 0.5 0 1 0 1 0a0.5 0.5 0 1 0 -1 0M422 117a1 1 0 1 0 2 0a1 1 0 1 0 -2 0M434 117a1 1 0 1 0 2 0a1 1 0 1 0 -2 0M448 117a1 1 0 1 0 2 0a1 1 0 1 0 -2 0M460 117a1 1 0 1 0 2 0a1 1 0 1 0 -2 0M474 117a1 1 0 1 0 2 0a1 1 0 1 0 -2 0M486 117a1 1 0 1 0 2 0a1 1 0 1 0 -2 0M500 117a1 1 0 1 0 2 0a1 1 0 1 0 -2 0M512 117a1 1 0 1 0 2 0a1 1 0 1 0 -2 0M525 117a1.5 1.5 0 1 0 3 0a1.5 1.5 0 1 0 -3 0M538 117a1.5 1.5 0 1 0 3 0a1.5 1.5 0 1 0 -3 0M551 117a1.5 1.5 0 1 0 3 0a1.5 1.5 0 1 0 -3 0M564 117a1.5 1.5 0 1 0 3 0a1.5 1.5 0 1 0 -3 0M577 117a1.5 1.5 0 1 0 3 0a1.5 1.5 0 1 0 -3 0M590 117a1.5 1.5 0 1 0 3 0a1.5 1.5 0 1 0 -3 0M603 117a1.5 1.5 0 1 0 3 0a1.5 1.5 0 1 0 -3 0M616 117a2 2 0 1 0 4 0a2 2 0 1 0 -4 0M628 117a2 2 0 1 0 4 0a2 2 0 1 0 -4 0M642 117a2 2 0 1 0 4 0a2 2 0 1 0 -4 0M654 117a2 2 0 1 0 4 0a2 2 0 1 0 -4 0M376 130a0.5 0.5 0 1 0 1 0a0.5 0.5 0 1 0 -1 0M390 130a0.5 0.5 0 1 0 1 0a0.5 0.5 0 1 0 -1 0M402 130a0.5 0.5 0 1 0 1 0a0.5 0.5 0 1 0 -1 0M416 130a0.5 0.5 0 1 0 1 0a0.5 0.5 0 1 0 -1 0M428 130a0.5 0.5 0 1 0 1 0a0.5 0.5 0 1 0 -1 0M442 130a0.5 0.5 0 1 0 1 0a0.5 0.5 0 1 0 -1 0M454 130a0.5 0.5 0 1 0 1 0a0.5 0.5 0 1 0 -1 0M468 130a0.5 0.5 0 1 0 1 0a0.5 0.5 0 1 0 -1 0M480 130a1 1 0 1 0 2 0a1 1 0 1 0 -2 0M493 130a1 1 0 1 0 2 0a1 1 0 1 0 -2 0M506 130a1 1 0 1 0 2 0a1 1 0 1 0 -2 0M519 130a1 1 0 1 0 2 0a1 1 0 1 0 -2 0M532 130a1 1 0 1 0 2 0a1 1 0 1 0 -2 0M545 130a1 1 0 1 0 2 0a1 1 0 1 0 -2 0M558 130a1 1 0 1 0 2 0a1 1 0 1 0 -2 0M570 130a1.5 1.5 0 1 0 3 0a1.5 1.5 0 1 0 -3 0M584 130a1.5 1.5 0 1 0 3 0a1.5 1.5 0 1 0 -3 0M596 130a1.5 1.5 0 1 0 3 0a1.5 1.5 0 1 0 -3 0M610 130a1.5 1.5 0 1 0 3 0a1.5 1.5 0 1 0 -3 0M622 130a1.5 1.5 0 1 0 3 0a1.5 1.5 0 1 0 -3 0M636 130a1.5 1.5 0 1 0 3 0a1.5 1.5 0 1 0 -3 0M648 130a1.5 1.5 0 1 0 3 0a1.5 1.5 0 1 0 -3 0M435 143a0.5 0.5 0 1 0 1 0a0.5 0.5 0 1 0 -1 0M448 143a0.5 0.5 0 1 0 1 0a0.5 0.5 0 1 0 -1 0M461 143a0.5 0.5 0 1 0 1 0a0.5 0.5 0 1 0 -1 0M474 143a0.5 0.5 0 1 0 1 0a0.5 0.5 0 1 0 -1 0M487 143a0.5 0.5 0 1 0 1 0a0.5 0.5 0 1 0 -1 0M500 143a0.5 0.5 0 1 0 1 0a0.5 0.5 0 1 0 -1 0M513 143a0.5 0.5 0 1 0 1 0a0.5 0.5 0 1 0 -1 0M526 143a1 1 0 1 0 2 0a1 1 0 1 0 -2 0M538 143a1 1 0 1 0 2 0a1 1 0 1 0 -2 0M552 143a1 1 0 1 0 2 0a1 1 0 1 0 -2 0M564 143a1 1 0 1 0 2 0a1 1 0 1 0 -2 0M578 143a1 1 0 1 0 2 0a1 1 0 1 0 -2 0M590 143a1 1 0 1 0 2 0a1 1 0 1 0 -2 0M604 143a1 1 0 1 0 2 0a1 1 0 1 0 -2 0M616 143a1 1 0 1 0 2 0a1 1 0 1 0 -2 0M629 143a1.5 1.5 0 1 0 3 0a1.5 1.5 0 1 0 -3 0M642 143a1.5 1.5 0 1 0 3 0a1.5 1.5 0 1 0 -3 0M655 143a1.5 1.5 0 1 0 3 0a1.5 1.5 0 1 0 -3 0M480 156a0.5 0.5 0 1 0 1 0a0.5 0.5 0 1 0 -1 0M494 156a0.5 0.5 0 1 0 1 0a0.5 0.5 0 1 0 -1 0M506 156a0.5 0.5 0 1 0 1 0a0.5 0.5 0 1 0 -1 0M520 156a0.5 0.5 0 1 0 1 0a0.5 0.5 0 1 0 -1 0M532 156a0.5 0.5 0 1 0 1 0a0.5 0.5 0 1 0 -1 0M546 156a0.5 0.5 0 1 0 1 0a0.5 0.5 0 1 0 -1 0M558 156a0.5 0.5 0 1 0 1 0a0.5 0.5 0 1 0 -1 0M572 156a0.5 0.5 0 1 0 1 0a0.5 0.5 0 1 0 -1 0M584 156a1 1 0 1 0 2 0a1 1 0 1 0 -2 0M597 156a1 1 0 1 0 2 0a1 1 0 1 0 -2 0M610 156a1 1 0 1 0 2 0a1 1 0 1 0 -2 0M623 156a1 1 0 1 0 2 0a1 1 0 1 0 -2 0M636 156a1 1 0 1 0 2 0a1 1 0 1 0 -2 0M649 156a1 1 0 1 0 2 0a1 1 0 1 0 -2 0M539 169a0.5 0.5 0 1 0 1 0a0.5 0.5 0 1 0 -1 0M552 169a0.5 0.5 0 1 0 1 0a0.5 0.5 0 1 0 -1 0M565 169a0.5 0.5 0 1 0 1 0a0.5 0.5 0 1 0 -1 0M578 169a0.5 0.5 0 1 0 1 0a0.5 0.5 0 1 0 -1 0M591 169a0.5 0.5 0 1 0 1 0a0.5 0.5 0 1 0 -1 0M604 169a0.5 0.5 0 1 0 1 0a0.5 0.5 0 1 0 -1 0M617 169a0.5 0.5 0 1 0 1 0a0.5 0.5 0 1 0 -1 0M630 169a1 1 0 1 0 2 0a1 1 0 1 0 -2 0M642 169a1 1 0 1 0 2 0a1 1 0 1 0 -2 0M656 169a1 1 0 1 0 2 0a1 1 0 1 0 -2 0" fill="#ffffff" opacity="0.1"/><path d="M396.8 -10 L650 -10 L650 35.2 L499.20000000000005 12.8Z" fill="#ffffff" opacity="0.13"/><path d="M448.0 -10 L650 -10 L650 19.2Z" fill="#e60012" opacity="0.55"/><path d="M-10 137.6 L217.60000000000002 118.4 L192.0 128.0 L-10 170Z" fill="#ffffff" opacity="0.08"/></svg>
