<svg xmlns="http://www.w3.org/2000/svg" viewBox="0 0 480 960"><path d="M119.5 527.8 C108.4 520.2 115.3 512.6 119.5 518.8 C123.6 512.6 130.5 520.2 119.5 527.8 Z" fill="#f7a8b8" opacity="0.4"/><ellipse cx="277.2" cy="579.3" rx="3.1" ry="3.1" fill="#f7a8b8" opacity="0.35"/><ellipse cx="468" cy="452" rx="3.5" ry="4.7" fill="#f7a8b8" opacity="0.35"/><ellipse cx="116.7" cy="152.5" rx="4.4" ry="4.2" fill="#f7a8b8" opacity="0.35"/><path d="M39.5 730 C26.5 721.1 34.6 712.2 39.5 719.5 C44.3 712.2 52.4 721.1 39.5 730 Z" fill="#f7a8b8" opacity="0.4"/><path d="M388.8 270.3 C376.3 261.7 384.1 253.1 388.8 260.1 C393.6 253.1 401.4 261.7 388.8 270.3 Z" fill="#f7a8b8" opacity="0.4"/><ellipse cx="433.7" cy="381.3" rx="4.9" ry="2.8" fill="#f7a8b8" opacity="0.35"/><path d="M178.1 51.7 C164 42 172.8 32.2 178.1 40.2 C183.5 32.2 192.3 42 178.1 51.7 Z" fill="#f7a8b8" opacity="0.4"/><path d="M210.6 588 L213.5 595 L221.1 595.6 L215.3 600.6 L217.1 607.9 L210.6 604 L204.2 607.9 L205.9 600.6 L200.2 595.6 L207.7 595Z" fill="#f7a8b8" opacity="0.45"/><path d="M274.1 519.8 C260.3 510.3 268.9 500.9 274.1 508.6 C279.2 500.9 287.8 510.3 274.1 519.8 Z" fill="#f28aa6" opacity="0.4"/><ellipse cx="323.7" cy="883.2" rx="4.2" ry="2.9" fill="#f7a8b8" opacity="0.35"/><ellipse cx="405.9" cy="916.8" rx="2.8" ry="4.1" fill="#f7a8b8" opacity="0.35"/><path d="M301.2 932.4 L302.9 936.5 L307.2 936.8 L303.9 939.7 L304.9 943.9 L301.2 941.7 L297.4 943.9 L298.4 939.7 L295.1 936.8 L299.5 936.5Z" fill="#f28aa6" opacity="0.45"/><path d="M402.8 932 L405.1 937.3 L410.9 937.8 L406.4 941.6 L407.8 947.3 L402.8 944.2 L397.8 947.3 L399.2 941.6 L394.8 937.8 L400.6 937.3Z" fill="#f28aa6" opacity="0.45"/><ellipse cx="79.4" cy="286.3" rx="2.6" ry="4" fill="#f28aa6" opacity="0.35"/><path d="M30.7 676.3 L33.1 682 L39.3 682.5 L34.5 686.6 L36 692.6 L30.7 689.4 L25.4 692.6 L26.8 686.6 L22.1 682.5 L28.3 682Z" fill="#f7a8b8" opacity="0.45"/><path d="M469.3 291.9 L471.8 297.7 L478.1 298.2 L473.3 302.4 L474.7 308.5 L469.3 305.2 L463.9 308.5 L465.4 302.4 L460.6 298.2 L466.9 297.7Z" fill="#f7a8b8" opacity="0.45"/><path d="M446.5 916.2 L448.3 920.6 L453.1 921 L449.5 924.1 L450.6 928.8 L446.5 926.3 L442.4 928.8 L443.5 924.1 L439.9 921 L444.7 920.6Z" fill="#f7a8b8" opacity="0.45"/><path d="M29.5 814.3 L32.5 821.6 L40.3 822.2 L34.4 827.3 L36.2 834.9 L29.5 830.8 L22.8 834.9 L24.7 827.3 L18.7 822.2 L26.5 821.6Z" fill="#f28aa6" opacity="0.45"/><path d="M183.8 450.4 C170.2 441.1 178.7 431.8 183.8 439.4 C188.9 431.8 197.3 441.1 183.8 450.4 Z" fill="#f7a8b8" opacity="0.4"/><ellipse cx="323.2" cy="106.4" rx="3.2" ry="4.1" fill="#f7a8b8" opacity="0.35"/><path d="M339.2 896.6 C327.9 888.8 334.9 881 339.2 887.4 C343.4 881 350.5 888.8 339.2 896.6 Z" fill="#f7a8b8" opacity="0.4"/><path d="M262.3 26.4 C252.3 19.5 258.5 12.6 262.3 18.3 C266 12.6 272.3 19.5 262.3 26.4 Z" fill="#f7a8b8" opacity="0.4"/><path d="M183.2 554.1 L185.8 560.3 L192.5 560.8 L187.4 565.2 L188.9 571.8 L183.2 568.2 L177.5 571.8 L179 565.2 L173.9 560.8 L180.6 560.3Z" fill="#f7a8b8" opacity="0.45"/><path d="M224.5 654 C214.7 647.3 220.8 640.6 224.5 646.1 C228.1 640.6 234.3 647.3 224.5 654 Z" fill="#f7a8b8" opacity="0.4"/><ellipse cx="235.2" cy="564" rx="4.9" ry="3.1" fill="#f28aa6" opacity="0.35"/><path d="M219.9 560 L221.8 564.5 L226.7 564.9 L222.9 568.1 L224.1 572.9 L219.9 570.3 L215.7 572.9 L216.9 568.1 L213.1 564.9 L218 564.5Z" fill="#f7a8b8" opacity="0.45"/><path d="M358.7 796.6 L360.5 800.8 L365 801.2 L361.6 804.1 L362.6 808.6 L358.7 806.2 L354.8 808.6 L355.9 804.1 L352.4 801.2 L357 800.8Z" fill="#f7a8b8" opacity="0.45"/><ellipse cx="384" cy="923.1" rx="3.3" ry="3.1" fill="#f28aa6" opacity="0.35"/><path d="M379.8 224.5 L382.4 230.8 L389.2 231.3 L384 235.7 L385.6 242.4 L379.8 238.8 L373.9 242.4 L375.5 235.7 L370.3 231.3 L377.1 230.8Z" fill="#f7a8b8" opacity="0.45"/><ellipse cx="54.6" cy="574.7" rx="4.6" ry="3.6" fill="#f7a8b8" opacity="0.35"/><path d="M403.5 161.8 L405.5 166.5 L410.5 166.9 L406.7 170.1 L407.8 175 L403.5 172.4 L399.3 175 L400.4 170.1 L396.6 166.9 L401.6 166.5Z" fill="#f7a8b8" opacity="0.45"/><ellipse cx="271.5" cy="264.4" rx="3.8" ry="3" fill="#f28aa6" opacity="0.35"/><path d="M381.1 790.1 L383.2 795.2 L388.8 795.7 L384.6 799.3 L385.8 804.7 L381.1 801.8 L376.4 804.7 L377.7 799.3 L373.5 795.7 L379 795.2Z" fill="#f7a8b8" opacity="0.45"/><ellipse cx="390.9" cy="90.4" rx="2.8" ry="3.2" fill="#f7a8b8" opacity="0.35"/><path d="M375.2 257.2 L377.2 262.1 L382.5 262.5 L378.5 266 L379.7 271.2 L375.2 268.4 L370.6 271.2 L371.9 266 L367.8 262.5 L373.1 262.1Z" fill="#f7a8b8" opacity="0.45"/><path d="M271.4 47.9 C263.4 42.4 268.4 36.9 271.4 41.4 C274.4 36.9 279.5 42.4 271.4 47.9 Z" fill="#f28aa6" opacity="0.4"/><ellipse cx="443.9" cy="837.2" rx="3.9" ry="5" fill="#f7a8b8" opacity="0.35"/><path d="M339.9 47.6 C327.2 38.8 335.1 30 339.9 37.2 C344.7 30 352.7 38.8 339.9 47.6 Z" fill="#f7a8b8" opacity="0.4"/><ellipse cx="453.1" cy="521.2" rx="4.6" ry="4.9" fill="#f28aa6" opacity="0.35"/><path d="M65.2 230.8 L67.6 236.6 L73.8 237.1 L69.1 241.1 L70.5 247.2 L65.2 243.9 L59.9 247.2 L61.3 241.1 L56.6 237.1 L62.8 236.6Z" fill="#f7a8b8" opacity="0.45"/><path d="M101.3 845.1 C93.2 839.5 98.3 834 101.3 838.5 C104.3 834 109.4 839.5 101.3 845.1 Z" fill="#f28aa6" opacity="0.4"/><path d="M352.8 165.4 L354.5 169.3 L358.7 169.6 L355.5 172.4 L356.4 176.5 L352.8 174.3 L349.2 176.5 L350.2 172.4 L347 169.6 L351.2 169.3Z" fill="#f7a8b8" opacity="0.45"/><ellipse cx="257" cy="60.1" rx="3.4" ry="3.1" fill="#f28aa6" opacity="0.35"/><ellipse cx="406.4" cy="458.6" rx="3.1" ry="2.8" fill="#f7a8b8" opacity="0.35"/><path d="M418.3 110.5 L421.4 117.9 L429.3 118.5 L423.2 123.7 L425.1 131.4 L418.3 127.2 L411.5 131.4 L413.4 123.7 L407.3 118.5 L415.3 117.9Z" fill="#f7a8b8" opacity="0.45"/></svg>
