<svg xmlns="http://www.w3.org/2000/svg" viewBox="0 0 200 200"><path d="M138 176 C196 176 206 112 178 82 C162 66 146 84 158 100 C176 124 162 150 132 156 Z" fill="#e9defc" stroke="#2d2540" stroke-width="5" stroke-linecap="round" stroke-linejoin="round"/><ellipse cx="72" cy="186" rx="17" ry="9" fill="#ffffff" stroke="#2d2540" stroke-width="5"/><ellipse cx="128" cy="186" rx="17" ry="9" fill="#ffffff" stroke="#2d2540" stroke-width="5"/><ellipse cx="100" cy="156" rx="50" ry="34" fill="#ffffff" stroke="#2d2540" stroke-width="5"/><ellipse cx="52" cy="150" rx="11" ry="15" fill="#ffffff" stroke="#2d2540" stroke-width="5" transform="rotate(28 52 150)"/><ellipse cx="148" cy="150" rx="11" ry="15" fill="#ffffff" stroke="#2d2540" stroke-width="5" transform="rotate(-28 148 150)"/><path d="M44 70 L50 24 L84 52 Z" fill="#ffffff" stroke="#2d2540" stroke-width="5" stroke-linecap="round" stroke-linejoin="round"/><path d="M156 70 L150 24 L116 52 Z" fill="#ffffff" stroke="#2d2540" stroke-width="5" stroke-linecap="round" stroke-linejoin="round"/><path d="M54 58 L56 36 L72 50 Z" fill="#f4a9c4" opacity="0.7"/><path d="M146 58 L144 36 L128 50 Z" fill="#f4a9c4" opacity="0.7"/><ellipse cx="100" cy="98" rx="66" ry="56" fill="#ffffff" stroke="#2d2540" stroke-width="5"/><ellipse cx="56" cy="116" rx="12" ry="6.5" fill="#f4a9c4" opacity="0.85"/><path d="M49 118.5 L53 113.5" fill="none" stroke="#2d2540" stroke-width="1.6" stroke-linecap="round" stroke-linejoin="round" opacity="0.45"/><path d="M54 118.5 L58 113.5" fill="none" stroke="#2d2540" stroke-width="1.6" stroke-linecap="round" stroke-linejoin="round" opacity="0.45"/><path d="M59 118.5 L63 113.5" fill="none" stroke="#2d2540" stroke-width="1.6" stroke-linecap="round" stroke-linejoin="round" opacity="0.45"/><ellipse cx="144" cy="116" rx="12" ry="6.5" fill="#f4a9c4" opacity="0.85"/><path d="M137 118.5 L141 113.5" fill="none" stroke="#2d2540" stroke-width="1.6" stroke-linecap="round" stroke-linejoin="round" opacity="0.45"/><path d="M142 118.5 L146 113.5" fill="none" stroke="#2d2540" stroke-width="1.6" stroke-linecap="round" stroke-linejoin="round" opacity="0.45"/><path d="M147 118.5 L151 113.5" fill="none" stroke="#2d2540" stroke-width="1.6" stroke-linecap="round" stroke-linejoin="round" opacity="0.45"/><ellipse cx="75" cy="98" rx="8.5" ry="10.5" fill="#2d2540"/><ellipse cx="77" cy="94.5" rx="3.2" ry="3.6" fill="#ffffff"/><ellipse cx="72.5" cy="102" rx="1.7" ry="1.9" fill="#ffffff"/><ellipse cx="125" cy="98" rx="8.5" ry="10.5" fill="#2d2540"/><ellipse cx="127" cy="94.5" rx="3.2" ry="3.6" fill="#ffffff"/><ellipse cx="122.5" cy="102" rx="1.7" ry="1.9" fill="#ffffff"/><path d="M93 116 Q96.5 120 100 116 Q103.5 120 107 116" fill="none" stroke="#2d2540" stroke-width="3" stroke-linecap="round" stroke-linejoin="round"/></svg>
